<svg width="44" height="34" viewBox="0 0 44 34" fill="none" xmlns="http://www.w3.org/2000/svg">
<g clip-path="url(#clip0_1:2)">
<path d="M42.5912 0.0200195L34.8262 7.88594C31.8541 3.26024 26.7213 0.209964 20.9086 0.209964C16.4778 0.209964 12.3101 1.9865 9.19538 5.22672C6.0916 8.4446 4.38069 12.7128 4.38069 17.2491C4.38069 18.4111 4.49036 19.5507 4.72068 20.6569C4.15037 21.2491 3.15234 22.3329 2.24204 23.5731C0.256937 26.2994 -0.18176 28.344 0.936917 29.6401C1.10143 29.8413 1.6169 30.3776 2.61493 30.4669C2.70267 30.4781 2.77944 30.4781 2.86718 30.4781C4.46843 30.4781 6.45353 29.2826 8.74572 26.9139L26.9626 8.51164L25.6904 7.20438L8.25219 24.8245C6.88126 22.5116 6.17934 19.9753 6.17934 17.2602C6.17934 13.2044 7.70381 9.39432 10.4786 6.52281C13.2533 3.64013 16.9603 2.05354 20.9086 2.05354C26.2278 2.05354 30.8999 4.91387 33.5102 9.20438L19.6473 23.2491C18.748 24.1653 17.6184 25.2938 16.7958 26.5563C15.3042 28.8245 15.6333 30.5116 15.9623 31.3049L15.9733 31.3273C16.3571 32.21 17.0152 32.9139 17.8816 33.3832C18.8686 33.9083 19.8667 33.9865 20.8757 34.02H20.8976H20.9196C25.3723 34.0088 29.5509 32.2658 32.6766 29.0926C35.8243 25.9195 37.5571 21.6737 37.5571 17.1597C37.5571 14.4111 36.9101 11.8189 35.7694 9.5284L43.8634 1.32728L42.5912 0.0200195ZM2.86718 28.6457H2.85622C2.54913 28.6457 2.39558 28.534 2.35171 28.5005L2.30784 28.4446C1.95689 28.0424 2.13237 26.8468 3.68974 24.6904C4.21618 23.953 4.80842 23.2714 5.29098 22.7239C5.70774 23.9083 6.25612 25.048 6.9361 26.1429C4.72068 28.2994 3.44846 28.6457 2.86718 28.6457ZM31.4044 27.7966C28.6187 30.6122 24.8898 32.1764 20.9305 32.1876C19.9325 32.1541 19.3183 32.0759 18.7261 31.7519C18.2216 31.4837 17.8596 31.0926 17.6293 30.5899C17.1906 29.4725 17.9584 28.1094 18.3093 27.5731C19.0332 26.4669 20.086 25.4055 20.9305 24.5563L34.4205 10.9027C35.2759 12.8133 35.7585 14.9362 35.7585 17.1709C35.7365 21.1932 34.2011 24.9697 31.4044 27.7966Z" fill="black"/>
</g>
<defs>
<clipPath id="clip0_1:2">
<rect width="44" height="34" fill="white"/>
</clipPath>
</defs>
</svg>
